<svg width="19" height="20" viewBox="0 0 19 20" fill="none" xmlns="http://www.w3.org/2000/svg">
<g clip-path="url(#clip0_56_1042)">
<path opacity="0.4" d="M0 10C0 15.2473 4.25273 19.5 9.5 19.5C14.7473 19.5 19 15.2473 19 10C19 9.17989 18.8961 8.38575 18.6994 7.62501C17.7531 7.62501 16.8105 7.62501 15.8643 7.62501C15.6008 7.62501 15.3633 7.77344 15.2445 8.00723C15.0145 8.46739 14.4764 8.69005 13.9865 8.52676C13.8307 8.47481 13.6785 8.42286 13.5227 8.37091C13.2369 8.27442 12.9252 8.34864 12.7137 8.56016C12.5764 8.69747 12.5764 8.92012 12.7137 9.05743C13.1293 9.47305 13.5412 9.88497 13.9568 10.3006C13.9791 10.3229 14.0014 10.3488 14.0236 10.3748C14.0459 10.4008 14.0645 10.4268 14.083 10.4527C14.1201 10.5084 14.1498 10.5641 14.1758 10.6234C14.2018 10.6828 14.2203 10.7459 14.2314 10.809C14.2389 10.8424 14.2426 10.8721 14.2463 10.9055C14.25 10.9389 14.25 10.9686 14.25 10.9871V11.002C14.25 11.0094 14.25 11.0131 14.25 11.0168C14.25 11.0316 14.25 11.0576 14.2463 11.0836C14.2426 11.1133 14.2389 11.1393 14.2352 11.1652C14.224 11.2209 14.2129 11.2729 14.1943 11.3248C14.1572 11.4287 14.1053 11.5215 14.0385 11.6068C13.9049 11.7775 13.7156 11.9037 13.4967 11.9594C13.4299 11.9742 13.3668 11.9928 13.3 12.0076C13.159 12.041 13.0625 12.1672 13.0625 12.3119C13.0625 12.4604 13.0625 12.6088 13.0625 12.7609C13.0625 12.7647 13.0625 12.7684 13.0625 12.7721C13.0625 12.7981 13.0625 12.824 13.0625 12.8537V12.8686C13.0625 12.8908 13.0588 12.9168 13.0588 12.9465C13.0514 13.017 13.0439 13.0801 13.0365 13.1432C13.0143 13.2693 12.9846 13.3918 12.9437 13.5143C12.8621 13.7555 12.7434 13.9818 12.5912 14.1897C12.2758 14.6127 11.9566 15.0358 11.6412 15.4551C11.4186 15.7557 11.066 15.9301 10.6912 15.9301C10.0344 15.9301 9.50371 15.3994 9.50371 14.7426C9.50371 14.1488 9.50371 13.5551 9.50371 12.9613C9.50371 12.9576 9.50371 12.9502 9.50371 12.9465C9.50371 12.9354 9.50371 12.9205 9.5 12.902C9.49629 12.8797 9.49629 12.8611 9.49258 12.8426C9.48516 12.8055 9.47402 12.7684 9.45918 12.7313C9.42949 12.6608 9.38496 12.5977 9.33301 12.542C9.22539 12.4344 9.07695 12.3676 8.91367 12.3676H7.72617C6.74277 12.3676 5.94492 11.5697 5.94492 10.5863C5.94492 10.2412 5.94492 9.89239 5.94492 9.54727C5.94492 9.07969 6.16387 8.6418 6.53867 8.35977L8.00078 7.26505C8.20859 7.10919 8.46094 7.02383 8.7207 7.02383C8.85059 7.02383 8.97676 7.0461 9.09922 7.08692L10.2867 7.48399C10.5539 7.57305 10.8434 7.58419 11.118 7.51739C11.5559 7.40977 11.9937 7.29844 12.4316 7.19083C12.4576 7.1834 12.4799 7.17598 12.4984 7.17227C12.5244 7.16485 12.5467 7.15372 12.5652 7.1463C12.6098 7.12774 12.6506 7.10548 12.6877 7.0795C12.7656 7.02755 12.8361 6.96446 12.8918 6.89395C12.9475 6.82344 12.992 6.73809 13.0254 6.65274C13.0402 6.60821 13.0514 6.56368 13.0588 6.51544C13.0625 6.48946 13.0662 6.46719 13.0662 6.44493C13.0662 6.42266 13.0699 6.4004 13.0699 6.38926V6.37442C13.0699 6.37071 13.0699 6.36329 13.0699 6.35958C13.0699 6.35215 13.0699 6.3336 13.0662 6.31505C13.0662 6.29649 13.0625 6.27423 13.0588 6.25567C13.0514 6.21485 13.0439 6.17774 13.0328 6.14063C13.0105 6.06641 12.9809 5.9959 12.94 5.92911C12.8584 5.79923 12.7396 5.6879 12.5986 5.61739L11.515 5.07559C11.3777 5.0088 11.2145 5.03477 11.1068 5.14239C11.0586 5.19063 11.0104 5.23887 10.9621 5.28712C10.7914 5.45782 10.5576 5.5543 10.3164 5.5543C10.1754 5.5543 10.0344 5.52091 9.9082 5.45782C9.71895 5.36505 9.52969 5.26856 9.34414 5.17579C9.0918 5.04962 8.79121 5.11641 8.61309 5.33536C8.44609 5.54688 8.27539 5.75469 8.1084 5.96622C7.9043 6.22227 7.52207 6.24083 7.29199 6.01075C7.18809 5.90684 7.13242 5.76954 7.13242 5.62481C7.13242 5.13497 7.13242 4.64883 7.13242 4.15899C7.13242 4.12559 7.13242 4.0959 7.12871 4.06622C7.125 4.03653 7.12129 4.00313 7.11758 3.97344C7.10645 3.91036 7.0916 3.85098 7.07305 3.79161C7.03594 3.67286 6.97656 3.56153 6.90234 3.46133C6.40508 2.77481 5.91152 2.09571 5.41797 1.42032C2.21543 2.94551 0 6.21485 0 10Z" fill="#CF3F28"/>
<path d="M5.41797 1.42031L6.89863 3.45391C7.04707 3.65801 7.125 3.90293 7.125 4.15156V5.61738C7.125 5.76211 7.18438 5.90313 7.28457 6.00332C7.51465 6.2334 7.89688 6.21484 8.10098 5.95879L8.60566 5.32793C8.78008 5.10898 9.08437 5.04219 9.33301 5.16836L9.89707 5.45039C10.0232 5.51348 10.1643 5.54688 10.3053 5.54688C10.5465 5.54688 10.7803 5.45039 10.951 5.27969L11.0957 5.13496C11.2033 5.02734 11.3666 5.00137 11.5039 5.06816L12.5875 5.60996C12.877 5.75469 13.0551 6.04785 13.0551 6.3707C13.0551 6.76035 12.7916 7.09805 12.4131 7.19453L11.0994 7.52109C10.8248 7.58789 10.5391 7.57676 10.2682 7.4877L9.08066 7.09063C8.9582 7.0498 8.83203 7.02754 8.70215 7.02754C8.44238 7.02754 8.19004 7.11289 7.98223 7.26875L6.53125 8.36719C6.15645 8.64922 5.9375 9.08711 5.9375 9.55469V10.5938C5.9375 11.5771 6.73535 12.375 7.71875 12.375H8.90625C9.23281 12.375 9.5 12.6422 9.5 12.9688V14.75C9.5 15.4068 10.0307 15.9375 10.6875 15.9375C11.0623 15.9375 11.4148 15.7631 11.6375 15.4625L12.5875 14.1971C12.8955 13.7852 13.0625 13.2842 13.0625 12.7721V12.323C13.0625 12.1783 13.159 12.0521 13.3 12.0188L13.4967 11.9705C13.9383 11.8592 14.25 11.4621 14.25 11.0057C14.25 10.7422 14.1461 10.4898 13.9605 10.3043L12.7174 9.06113C12.5801 8.92383 12.5801 8.70117 12.7174 8.56387C12.9289 8.35234 13.2406 8.27812 13.5264 8.37461L13.9902 8.53047C14.4801 8.69375 15.0145 8.47109 15.2482 8.01094C15.367 7.77715 15.6045 7.62871 15.868 7.62871H18.7031C17.6455 3.52813 13.9271 0.5 9.5 0.5C8.03789 0.5 6.65371 0.830273 5.41797 1.42031Z" fill="#CF3F28"/>
</g>
<defs>
<clipPath id="clip0_56_1042">
<rect width="19" height="19" fill="white" transform="translate(0 0.5)"/>
</clipPath>
</defs>
</svg>
