<svg width="38" height="43" viewBox="0 0 38 43" fill="none" xmlns="http://www.w3.org/2000/svg">
<path opacity="0.4" d="M1.35742 25.5312C1.35742 16.7969 7.8293 9.55742 16.286 8.26406C17.1681 8.12969 18.0757 8.0625 19.0003 8.0625C19.9248 8.0625 20.8324 8.12969 21.7146 8.26406C24.8954 8.75117 27.7963 10.0781 30.1713 12.0098C31.5793 13.152 32.8007 14.5041 33.8016 16.0158C35.5998 18.7537 36.6431 22.0207 36.6431 25.5312C36.6431 35.1811 28.7463 43 19.0003 43C9.2543 43 1.35742 35.1811 1.35742 25.5312ZM16.9646 16.125V26.875C16.9646 27.992 17.8722 28.8906 19.0003 28.8906C20.1284 28.8906 21.036 27.992 21.036 26.875V16.125C21.036 15.008 20.1284 14.1094 19.0003 14.1094C17.8722 14.1094 16.9646 15.008 16.9646 16.125Z" fill="#CF3F28"/>
<path d="M12.2139 2.6875C12.2139 1.20098 13.4268 0 14.9282 0H18.9996H23.071C24.5723 0 25.7853 1.20098 25.7853 2.6875C25.7853 4.17402 24.5723 5.375 23.071 5.375H21.7139V8.26406C20.8317 8.12969 19.9241 8.0625 18.9996 8.0625C18.075 8.0625 17.1674 8.12969 16.2853 8.26406V5.375H14.9282C13.4268 5.375 12.2139 4.17402 12.2139 2.6875ZM30.1706 12.0098L32.0027 10.1957C33.063 9.1459 34.7848 9.1459 35.8451 10.1957C36.9054 11.2455 36.9054 12.9504 35.8451 14.0002L33.8009 16.0242C32.8085 14.5125 31.5786 13.1604 30.1706 12.0182V12.0098ZM21.0353 16.125V26.875C21.0353 27.992 20.1277 28.8906 18.9996 28.8906C17.8715 28.8906 16.9639 27.992 16.9639 26.875V16.125C16.9639 15.008 17.8715 14.1094 18.9996 14.1094C20.1277 14.1094 21.0353 15.008 21.0353 16.125Z" fill="#CF3F28"/>
</svg>
